<svg width="24" height="24" viewBox="0 0 24 24" fill="none" xmlns="http://www.w3.org/2000/svg">
<g clip-path="url(#clip0_139_5229)">
<path d="M22.3537 12.5068L17.7337 10.3802V4.28685C17.7316 4.15901 17.6928 4.03448 17.6219 3.9281C17.5509 3.82171 17.4509 3.73797 17.3337 3.68685L12.3337 1.38685C12.246 1.34623 12.1504 1.3252 12.0537 1.3252C11.957 1.3252 11.8615 1.34623 11.7737 1.38685L6.77373 3.68685C6.65801 3.7404 6.56007 3.82602 6.49154 3.93355C6.423 4.04107 6.38674 4.166 6.38706 4.29351V10.3868L1.78706 12.5068C1.67134 12.5604 1.57341 12.646 1.50487 12.7535C1.43634 12.8611 1.40008 12.986 1.40039 13.1135V19.6335C1.40008 19.761 1.43634 19.886 1.50487 19.9935C1.57341 20.101 1.67134 20.1866 1.78706 20.2402L6.78706 22.5402C6.87482 22.5808 6.97036 22.6018 7.06706 22.6018C7.16376 22.6018 7.2593 22.5808 7.34706 22.5402L12.0671 20.3668L16.7871 22.5402C16.8748 22.5808 16.9704 22.6018 17.0671 22.6018C17.1638 22.6018 17.2593 22.5808 17.3471 22.5402L22.3471 20.2402C22.4628 20.1866 22.5607 20.101 22.6292 19.9935C22.6978 19.886 22.734 19.761 22.7337 19.6335V13.1135C22.7346 12.9867 22.6994 12.8623 22.6321 12.7549C22.5648 12.6474 22.4682 12.5614 22.3537 12.5068ZM17.0737 14.6668L13.6671 13.1135L17.0737 11.5468L20.4804 13.1135L17.0737 14.6668ZM16.4071 10.3735L12.1137 12.3735V7.24685C12.1941 7.24329 12.2731 7.22522 12.3471 7.19351L16.4004 5.33351V10.3868L16.4071 10.3735ZM12.0671 2.72018L15.4737 4.28685L12.0671 5.85351L8.66706 4.28685L12.0671 2.72018ZM7.06706 11.5402L10.4737 13.1068L7.06706 14.6668L3.66039 13.1135L7.06706 11.5402ZM11.4004 19.2002L7.06706 21.2002V16.0735C7.1601 16.068 7.25094 16.043 7.33373 16.0002L11.3871 14.1335L11.4004 19.2002ZM21.4004 19.2002L17.0937 21.2002V16.0735C17.1776 16.0645 17.2591 16.0396 17.3337 16.0002L21.3871 14.1335L21.4004 19.2002Z" fill="#001564"/>
</g>
<defs>
<clipPath id="clip0_139_5229">
<rect width="24" height="24" fill="white"/>
</clipPath>
</defs>
</svg>
