<svg width="17" height="16" viewBox="0 0 17 16" fill="none" xmlns="http://www.w3.org/2000/svg">
<path d="M12.3687 8.09077C12.3223 8.04334 12.2669 8.00562 12.2058 7.97981C12.1446 7.954 12.079 7.94061 12.0126 7.94043C11.9463 7.94025 11.8805 7.95328 11.8193 7.97876C11.758 8.00424 11.7024 8.04165 11.6558 8.08883C11.6091 8.13601 11.5723 8.192 11.5475 8.25355C11.5227 8.31509 11.5104 8.38096 11.5113 8.44731C11.5122 8.51366 11.5263 8.57916 11.5528 8.64C11.5793 8.70084 11.6176 8.7558 11.6656 8.80167C12.0898 9.2191 12.4263 9.71704 12.6555 10.2663C12.8846 10.8155 13.0018 11.405 13 12.0002C13 12.6117 11.2471 13.5002 8.50002 13.5002C5.75297 13.5002 4.00002 12.6113 4.00002 11.9992C3.99834 11.4081 4.11391 10.8226 4.34004 10.2765C4.56618 9.73045 4.89838 9.23465 5.31742 8.81782C5.36482 8.77161 5.40257 8.71645 5.42848 8.65554C5.45439 8.59463 5.46795 8.52918 5.46837 8.46299C5.46879 8.39679 5.45606 8.33118 5.43092 8.26994C5.40579 8.20871 5.36874 8.15307 5.32193 8.10627C5.27513 8.05946 5.21949 8.02241 5.15826 7.99727C5.09702 7.97214 5.0314 7.95941 4.96521 7.95983C4.89902 7.96025 4.83357 7.97381 4.77266 7.99972C4.71174 8.02563 4.65658 8.06338 4.61037 8.11077C4.09809 8.62037 3.69197 9.22653 3.41556 9.89415C3.13914 10.5618 2.9979 11.2776 3.00002 12.0002C3.00002 13.624 5.83352 14.5002 8.50002 14.5002C11.1665 14.5002 14 13.624 14 12.0002C14.0022 11.2727 13.8591 10.5522 13.5789 9.88082C13.2988 9.20947 12.8873 8.60087 12.3687 8.09077Z" fill="#77838F"/>
<path d="M8.5 8.5C9.19223 8.5 9.86892 8.29473 10.4445 7.91015C11.0201 7.52556 11.4687 6.97894 11.7336 6.33939C11.9985 5.69985 12.0678 4.99612 11.9327 4.31719C11.7977 3.63825 11.4644 3.01461 10.9749 2.52513C10.4854 2.03564 9.86175 1.7023 9.18282 1.56725C8.50388 1.4322 7.80015 1.50152 7.16061 1.76642C6.52107 2.03133 5.97444 2.47993 5.58986 3.05551C5.20527 3.63108 5 4.30777 5 5C5.00107 5.92793 5.37016 6.81755 6.02631 7.47369C6.68246 8.12984 7.57207 8.49893 8.5 8.5ZM8.5 2.5C8.99445 2.5 9.4778 2.64662 9.88893 2.92133C10.3 3.19603 10.6205 3.58648 10.8097 4.04329C10.9989 4.50011 11.0484 5.00277 10.952 5.48773C10.8555 5.97268 10.6174 6.41814 10.2678 6.76777C9.91814 7.1174 9.47268 7.3555 8.98773 7.45196C8.50277 7.54843 8.00011 7.49892 7.54329 7.3097C7.08648 7.12048 6.69603 6.80005 6.42133 6.38893C6.14662 5.9778 6 5.49445 6 5C6.00078 4.3372 6.26442 3.70177 6.7331 3.2331C7.20177 2.76443 7.8372 2.50078 8.5 2.5Z" fill="#77838F"/>
</svg>
