<svg width="17" height="16" viewBox="0 0 17 16" fill="none" xmlns="http://www.w3.org/2000/svg">
<g clip-path="url(#clip0_317_340)">
<path d="M16.0429 3.87571C16.0429 3.15196 15.4541 2.56321 14.7304 2.56321C14.3588 2.56321 14.023 2.71873 13.784 2.96775L8.66201 0.0105897C8.56533 -0.0451966 8.44631 -0.0451966 8.34963 0.0105897L3.22755 2.96775C2.98853 2.71873 2.65284 2.56321 2.28125 2.56321C1.5575 2.56321 0.96875 3.15196 0.96875 3.87571C0.96875 4.49168 1.39539 5.00963 1.96875 5.15025V11.0625C1.96875 11.1741 2.02832 11.2772 2.125 11.3331L7.24538 14.2894C7.21144 14.4059 7.19289 14.5289 7.19289 14.6563C7.19289 15.3799 7.78164 15.9688 8.50539 15.9688C9.22903 15.9688 9.81778 15.3799 9.81778 14.6563C9.81778 14.5291 9.79934 14.4063 9.76541 14.2898L14.8866 11.3331C14.9833 11.2773 15.0429 11.1741 15.0429 11.0625V5.15025C15.6163 5.00963 16.0429 4.49168 16.0429 3.87571ZM1.59375 3.87571C1.59375 3.49656 1.9021 3.18821 2.28125 3.18821C2.66028 3.18821 2.96863 3.49656 2.96863 3.87571C2.96863 4.25474 2.66028 4.56322 2.28125 4.56322C1.9021 4.56322 1.59375 4.25474 1.59375 3.87571ZM8.50539 15.3438C8.12624 15.3438 7.81789 15.0354 7.81789 14.6563C7.81789 14.2772 8.12624 13.9688 8.50539 13.9688C8.88442 13.9688 9.1929 14.2772 9.1929 14.6563C9.1929 15.0354 8.88442 15.3438 8.50539 15.3438ZM9.45242 13.7489C9.21328 13.4995 8.87734 13.3438 8.50539 13.3438C8.13369 13.3438 7.79775 13.4994 7.55874 13.7485L2.59375 10.8821V5.15025C3.167 5.00963 3.59364 4.49168 3.59364 3.87571C3.59364 3.74827 3.57508 3.6251 3.54102 3.5084L8.50576 0.642061L13.4706 3.5084C13.4366 3.6251 13.418 3.74815 13.418 3.87571C13.418 4.49168 13.8446 5.00963 14.4179 5.15025V10.8821L9.45242 13.7489ZM14.7304 4.56322C14.3514 4.56322 14.0429 4.25474 14.0429 3.87571C14.0429 3.49656 14.3514 3.18821 14.7304 3.18821C15.1095 3.18821 15.4179 3.49656 15.4179 3.87571C15.4179 4.25474 15.1095 4.56322 14.7304 4.56322Z" fill="#77838F"/>
<path d="M12.787 4.81687L8.662 2.43539C8.56532 2.37961 8.4463 2.37961 8.34962 2.43539L4.22461 4.81687C4.12793 4.87278 4.06836 4.97593 4.06836 5.0875V9.85058C4.06836 9.96215 4.12793 10.0654 4.22461 10.1212L8.34962 12.5028C8.39796 12.5306 8.4518 12.5447 8.50575 12.5447C8.55983 12.5447 8.61366 12.5306 8.662 12.5028L12.787 10.1212C12.8837 10.0654 12.9433 9.96215 12.9433 9.85058V5.0875C12.9433 4.97593 12.8837 4.87278 12.787 4.81687ZM8.50575 3.06687L12.0058 5.0875L8.50575 7.10826L5.00586 5.0875L8.50575 3.06687ZM8.81825 11.6909V10.2816C8.81825 10.109 8.67836 9.96911 8.50575 9.96911C8.33326 9.96911 8.19337 10.109 8.19337 10.2816V11.6909L4.69336 9.67016V5.62876L8.34962 7.73973C8.39796 7.76756 8.4518 7.7816 8.50575 7.7816C8.55983 7.7816 8.61366 7.76756 8.662 7.73973L12.3183 5.62876V9.67016L8.81825 11.6909Z" fill="#77838F"/>
<path d="M8.50525 8.5625C8.42273 8.5625 8.34241 8.59583 8.28394 8.65405C8.22583 8.71216 8.19238 8.79273 8.19238 8.875C8.19238 8.95715 8.22583 9.03772 8.28394 9.09583C8.34241 9.15405 8.42273 9.1875 8.50525 9.1875C8.5874 9.1875 8.66809 9.15405 8.7262 9.09583C8.7843 9.03772 8.81775 8.95715 8.81775 8.875C8.81775 8.79273 8.7843 8.71216 8.7262 8.65405C8.66809 8.59583 8.5874 8.5625 8.50525 8.5625Z" fill="#77838F"/>
</g>
<defs>
<clipPath id="clip0_317_340">
<rect width="16" height="16" fill="white" transform="translate(0.5)"/>
</clipPath>
</defs>
</svg>
