<svg width="16" height="16" viewBox="0 0 16 16" fill="none" xmlns="http://www.w3.org/2000/svg">
<path d="M9.99992 7.50004C10.8284 7.50004 11.4999 6.82846 11.4999 6.00004C11.4999 5.2012 10.8535 4.50004 9.99992 4.50004L5.20753 4.49998L5.85348 5.14648L5.14637 5.85359L3.29282 4.00004L5.14637 2.14648L5.85348 2.85359L5.20753 3.49998L9.99992 3.50004C11.3806 3.50004 12.4999 4.61933 12.4999 6.00004C12.4999 7.34442 11.4128 8.50004 9.99992 8.50004H5.99992C5.1715 8.50004 4.49992 9.17161 4.49992 10C4.49992 10.7989 5.14637 11.5 5.99992 11.5L10.7925 11.5L10.1464 10.8536L10.8535 10.1465L12.707 12L10.8535 13.8536L10.1464 13.1465L10.7925 12.5L5.99992 12.5C4.61921 12.5 3.49992 11.3807 3.49992 10C3.49992 8.65566 4.59486 7.50004 5.99992 7.50004H9.99992Z" fill="#77838F"/>
</svg>
