<svg width="16" height="16" viewBox="0 0 16 16" fill="none" xmlns="http://www.w3.org/2000/svg">
<g clip-path="url(#clip0_149_14376)">
<path d="M10.5 0.5C7.834 0.5 5 1.376 5 3V5C5 5.276 5.224 5.5 5.5 5.5C5.776 5.5 6 5.276 6 5V4.479C7.061 5.148 8.813 5.5 10.5 5.5C12.187 5.5 13.939 5.148 15 4.479V5C15 5.489 13.77 6.269 11.458 6.462C11.184 6.484 10.979 6.727 11.002 7.002C11.023 7.263 11.242 7.46 11.499 7.46C11.514 7.46 11.527 7.459 11.542 7.458C12.844 7.349 14.141 7.012 15 6.465V7C15 7.427 14.094 8.041 12.413 8.338C12.142 8.386 11.96 8.646 12.008 8.917C12.051 9.159 12.262 9.33 12.499 9.33C12.528 9.33 12.558 9.328 12.587 9.322C13.604 9.143 14.418 8.85 15 8.478V9C15 9.427 14.094 10.041 12.413 10.338C12.142 10.386 11.96 10.646 12.008 10.917C12.051 11.159 12.262 11.33 12.499 11.33C12.528 11.33 12.558 11.328 12.587 11.322C13.604 11.143 14.418 10.849 15 10.478V11C15 11.427 14.094 12.041 12.413 12.338C12.142 12.386 11.96 12.646 12.008 12.917C12.051 13.159 12.262 13.33 12.499 13.33C12.528 13.33 12.558 13.328 12.587 13.322C13.604 13.143 14.418 12.849 15 12.478V13C15 13.489 13.77 14.269 11.458 14.462C11.184 14.484 10.979 14.727 11.002 15.002C11.023 15.263 11.242 15.46 11.499 15.46C11.514 15.46 11.527 15.459 11.542 15.458C13.761 15.272 16 14.441 16 13V3C16 1.376 13.166 0.5 10.5 0.5ZM10.5 4.5C7.753 4.5 6 3.611 6 3C6 2.389 7.753 1.5 10.5 1.5C13.247 1.5 15 2.389 15 3C15 3.611 13.247 4.5 10.5 4.5Z" fill="#121B51"/>
<path d="M5.5 6.5C2.834 6.5 0 7.376 0 9V13C0 14.624 2.834 15.5 5.5 15.5C8.166 15.5 11 14.624 11 13V9C11 7.376 8.166 6.5 5.5 6.5ZM10 13C10 13.611 8.247 14.5 5.5 14.5C2.753 14.5 1 13.611 1 13V12.479C2.061 13.148 3.813 13.5 5.5 13.5C7.187 13.5 8.939 13.148 10 12.479V13ZM10 11C10 11.611 8.247 12.5 5.5 12.5C2.753 12.5 1 11.611 1 11V10.479C2.061 11.148 3.813 11.5 5.5 11.5C7.187 11.5 8.939 11.148 10 10.479V11ZM5.5 10.5C2.753 10.5 1 9.611 1 9C1 8.389 2.753 7.5 5.5 7.5C8.247 7.5 10 8.389 10 9C10 9.611 8.247 10.5 5.5 10.5Z" fill="#121B51"/>
</g>
<defs>
<clipPath id="clip0_149_14376">
<rect width="16" height="16" fill="white"/>
</clipPath>
</defs>
</svg>
