<svg width="24" height="24" viewBox="0 0 24 24" fill="none" xmlns="http://www.w3.org/2000/svg">
<g clip-path="url(#clip0_139_5223)">
<path d="M21.5002 11.0001C21.3912 11.0006 21.2825 11.013 21.1762 11.0371L19.6702 8.43011C19.8059 8.26023 19.903 8.06279 19.9546 7.85155C20.0061 7.64031 20.011 7.42036 19.9689 7.20704C19.9267 6.99372 19.8385 6.79217 19.7105 6.61643C19.5824 6.44069 19.4176 6.29501 19.2274 6.18953C19.0373 6.08405 18.8264 6.02133 18.6095 6.00573C18.3926 5.99012 18.1749 6.02202 17.9717 6.0992C17.7684 6.17637 17.5844 6.29696 17.4325 6.45256C17.2806 6.60816 17.1644 6.79502 17.0922 7.00011H14.9082C14.7891 6.65424 14.5464 6.3646 14.2267 6.18684C13.907 6.00908 13.5328 5.95575 13.1762 6.03711L11.6702 3.42811C11.8063 3.25822 11.9037 3.06066 11.9555 2.84923C12.0073 2.6378 12.0124 2.4176 11.9702 2.20403C11.9281 1.99045 11.8399 1.78865 11.7116 1.61273C11.5834 1.43681 11.4183 1.29102 11.2279 1.18554C11.0375 1.08006 10.8263 1.01744 10.6092 1.00205C10.392 0.986664 10.1741 1.01889 9.97073 1.09646C9.76733 1.17404 9.58333 1.2951 9.43158 1.45118C9.27984 1.60726 9.16401 1.7946 9.09219 2.00011H6.90819C6.83696 1.79373 6.72142 1.60545 6.56969 1.44847C6.41796 1.29149 6.23371 1.16963 6.02987 1.09144C5.82603 1.01324 5.60755 0.980607 5.38976 0.995827C5.17197 1.01105 4.96015 1.07375 4.76917 1.17954C4.57819 1.28533 4.41267 1.43163 4.28425 1.60819C4.15583 1.78474 4.0676 1.98727 4.02577 2.20154C3.98394 2.41582 3.98951 2.63665 4.0421 2.84855C4.09469 3.06044 4.19302 3.25826 4.33019 3.42811L2.82419 6.03811C2.60388 5.98748 2.37498 5.98731 2.15459 6.0376C1.93421 6.08788 1.72804 6.18733 1.55149 6.32851C1.37495 6.46968 1.23259 6.64893 1.13506 6.85286C1.03754 7.05679 0.987365 7.28012 0.988294 7.50617C0.989223 7.73222 1.04123 7.95514 1.14043 8.15826C1.23963 8.36138 1.38345 8.53945 1.56115 8.67917C1.73885 8.81889 1.94583 8.91664 2.16662 8.96512C2.38741 9.01359 2.6163 9.01154 2.83619 8.95911L4.33819 11.5621C4.12108 11.8241 4.00161 12.1534 4.00015 12.4937C3.99869 12.834 4.11534 13.1642 4.33019 13.4281L2.82419 16.0381C2.60388 15.9875 2.37498 15.9873 2.15459 16.0376C1.93421 16.0879 1.72804 16.1873 1.55149 16.3285C1.37495 16.4697 1.23259 16.6489 1.13506 16.8529C1.03754 17.0568 0.987365 17.2801 0.988294 17.5062C0.989223 17.7322 1.04123 17.9551 1.14043 18.1583C1.23963 18.3614 1.38345 18.5395 1.56115 18.6792C1.73885 18.8189 1.94583 18.9166 2.16662 18.9651C2.38741 19.0136 2.6163 19.0115 2.83619 18.9591L4.33819 21.5621C4.20031 21.7312 4.10113 21.9285 4.04761 22.1401C3.99409 22.3516 3.98753 22.5723 4.02839 22.7867C4.06925 23.001 4.15655 23.2038 4.28414 23.3809C4.41173 23.5579 4.57652 23.7048 4.76695 23.8114C4.95738 23.9179 5.16883 23.9815 5.38645 23.9976C5.60406 24.0138 5.82257 23.9821 6.02663 23.9047C6.23069 23.8274 6.41535 23.7064 6.56765 23.5501C6.71994 23.3938 6.83617 23.2061 6.90819 23.0001H9.09219C9.16363 23.2069 9.27958 23.3956 9.43187 23.5528C9.58415 23.7099 9.76906 23.8317 9.97355 23.9097C10.178 23.9876 10.3971 24.0197 10.6154 24.0037C10.8336 23.9878 11.0457 23.9241 11.2367 23.8172C11.4277 23.7104 11.5929 23.5629 11.7207 23.3853C11.8485 23.2076 11.9357 23.0041 11.9763 22.7891C12.0169 22.574 12.0098 22.3527 11.9555 22.1407C11.9012 21.9287 11.8011 21.7312 11.6622 21.5621L13.1642 18.9591C13.5221 19.0451 13.8992 18.9945 14.2218 18.8172C14.5444 18.6398 14.7891 18.3484 14.9082 18.0001H17.0922C17.1636 18.2069 17.2796 18.3956 17.4319 18.5528C17.5842 18.7099 17.7691 18.8317 17.9736 18.9097C18.178 18.9876 18.3971 19.0197 18.6154 19.0037C18.8336 18.9878 19.0457 18.9241 19.2367 18.8172C19.4277 18.7104 19.5929 18.5629 19.7207 18.3853C19.8485 18.2076 19.9357 18.0041 19.9763 17.7891C20.0169 17.574 20.0098 17.3527 19.9555 17.1407C19.9012 16.9287 19.8011 16.7312 19.6622 16.5621L21.1642 13.9591C21.3701 14.007 21.5839 14.0108 21.7914 13.9703C21.9989 13.9297 22.1955 13.8457 22.3682 13.7238C22.541 13.6019 22.686 13.4448 22.7937 13.2629C22.9014 13.081 22.9695 12.8783 22.9933 12.6682C23.0172 12.4581 22.9963 12.2454 22.9321 12.0439C22.8679 11.8425 22.7618 11.6569 22.6208 11.4994C22.4798 11.3418 22.307 11.2159 22.1139 11.1298C21.9208 11.0438 21.7116 10.9996 21.5002 11.0001ZM18.5002 16.0001C18.1909 16.0008 17.8895 16.0973 17.6373 16.2764C17.3852 16.4555 17.1947 16.7083 17.0922 17.0001H14.9082C14.7887 16.657 14.5479 16.3693 14.2311 16.1914C13.9143 16.0135 13.5434 15.9575 13.1882 16.0341L11.6782 13.4181C11.8894 13.1541 12.0031 12.8253 12.0002 12.4873C11.9972 12.1492 11.8779 11.8225 11.6622 11.5621L13.1642 8.95911C13.5221 9.04514 13.8992 8.99452 14.2218 8.81715C14.5444 8.63978 14.7891 8.34843 14.9082 8.00011H17.0922C17.2113 8.34597 17.454 8.63562 17.7737 8.81337C18.0934 8.99113 18.4676 9.04446 18.8242 8.96311L20.3302 11.5711C20.1177 11.8318 20.0009 12.1574 19.9995 12.4937C19.998 12.83 20.1119 13.1566 20.3222 13.4191L18.8122 16.0341C18.7097 16.0119 18.6051 16.0005 18.5002 16.0001ZM10.5002 21.0001C10.1909 21.0008 9.88947 21.0973 9.63732 21.2764C9.38518 21.4555 9.19473 21.7083 9.09219 22.0001H6.90819C6.78892 21.6568 6.54818 21.3689 6.23136 21.1908C5.91454 21.0127 5.54351 20.9566 5.18819 21.0331L3.67819 18.4181C3.88794 18.1558 4.00155 17.8296 4.00009 17.4937C3.99864 17.1578 3.88221 16.8326 3.67019 16.5721L5.17619 13.9621C5.5327 14.0435 5.90672 13.9903 6.2264 13.8128C6.54609 13.6352 6.7889 13.3458 6.90819 13.0001H9.09219C9.21129 13.346 9.45402 13.6356 9.77373 13.8134C10.0934 13.9911 10.4676 14.0445 10.8242 13.9631L12.3312 16.5711C12.1186 16.8314 12.0017 17.1568 11.9999 17.4928C11.9981 17.8289 12.1115 18.1555 12.3212 18.4181L10.8112 21.0331C10.709 21.0113 10.6047 21.0003 10.5002 21.0001ZM3.67019 6.57211L5.17619 3.96211C5.5327 4.04351 5.90672 3.99033 6.2264 3.81276C6.54609 3.6352 6.7889 3.34579 6.90819 3.00011H9.09219C9.21129 3.34597 9.45402 3.63562 9.77373 3.81337C10.0934 3.99113 10.4676 4.04446 10.8242 3.96311L12.3302 6.57011C12.1179 6.83067 12.0013 7.15611 11.9999 7.49219C11.9984 7.82828 12.1122 8.15471 12.3222 8.41711L10.8122 11.0321C10.4569 10.9558 10.086 11.012 9.76918 11.1901C9.45241 11.3682 9.21165 11.6559 9.09219 11.9991H6.90819C6.78873 11.6559 6.54797 11.3682 6.2312 11.1901C5.91443 11.012 5.54349 10.9558 5.18819 11.0321L3.67819 8.41711C3.88794 8.15479 4.00155 7.82856 4.00009 7.49269C3.99864 7.15683 3.88221 6.83259 3.67019 6.57211Z" fill="#121B51"/>
</g>
<defs>
<clipPath id="clip0_139_5223">
<rect width="24" height="24" fill="white"/>
</clipPath>
</defs>
</svg>
