<svg width="21" height="22" viewBox="0 0 21 22" fill="none" xmlns="http://www.w3.org/2000/svg">
<path d="M20.75 20.19L15.086 14.526C16.4471 12.8919 17.1258 10.7961 16.981 8.67438C16.8361 6.55268 15.8789 4.5685 14.3084 3.13459C12.7379 1.70068 10.675 0.927459 8.54893 0.975767C6.42284 1.02408 4.39723 1.8902 2.89347 3.39396C1.38971 4.89772 0.523588 6.92333 0.475279 9.04942C0.42697 11.1755 1.2002 13.2384 2.6341 14.8089C4.06801 16.3794 6.05219 17.3366 8.17389 17.4815C10.2956 17.6263 12.3914 16.9475 14.0255 15.5865L19.6895 21.2505L20.75 20.19ZM1.99996 9.25045C1.99996 7.91543 2.39585 6.61039 3.13754 5.50035C3.87924 4.39032 4.93345 3.52516 6.16685 3.01427C7.40025 2.50337 8.75745 2.3697 10.0668 2.63015C11.3762 2.8906 12.5789 3.53348 13.5229 4.47748C14.4669 5.42149 15.1098 6.62422 15.3703 7.93359C15.6307 9.24296 15.497 10.6002 14.9862 11.8336C14.4753 13.067 13.6101 14.1212 12.5001 14.8629C11.39 15.6046 10.085 16.0005 8.74996 16.0005C6.96036 15.9985 5.24463 15.2867 3.97919 14.0212C2.71375 12.7558 2.00195 11.0401 1.99996 9.25045Z" fill="white"/>
</svg>
