<svg width="17" height="16" viewBox="0 0 17 16" fill="none" xmlns="http://www.w3.org/2000/svg">
<path fill-rule="evenodd" clip-rule="evenodd" d="M10.7622 3.47392C10.1688 3.56384 9.68677 3.85393 9.52004 4.02063L8.87364 4.66708L11.8332 7.62666L12.4796 6.98019C12.6463 6.81346 12.9364 6.33145 13.0263 5.738C13.1122 5.17073 13.01 4.55099 12.4796 4.02063C11.9492 3.49027 11.3295 3.38797 10.7622 3.47392ZM10.6124 2.48521C11.4202 2.36282 12.3838 2.51054 13.1867 3.31353C13.9897 4.11651 14.1374 5.08007 14.015 5.88781C13.8966 6.66933 13.52 7.35399 13.1867 7.68726L12.1867 8.68733C11.9914 8.88259 11.6749 8.88259 11.4796 8.68733L7.81297 5.02063C7.71917 4.92687 7.6665 4.79969 7.6665 4.66708C7.6665 4.53447 7.71917 4.40729 7.81297 4.31353L8.81297 3.31353C8.81297 3.31353 8.81297 3.31354 8.81297 3.31353C9.14624 2.98021 9.8309 2.60361 10.6124 2.48521Z" fill="#77838F"/>
<path fill-rule="evenodd" clip-rule="evenodd" d="M14.8537 1.64645C15.0489 1.84171 15.0489 2.15829 14.8537 2.35355L13.187 4.02022C12.9917 4.21548 12.6752 4.21556 12.4799 4.0203C12.2847 3.82504 12.2847 3.50837 12.4799 3.31311L14.1466 1.64645C14.3419 1.45118 14.6584 1.45118 14.8537 1.64645Z" fill="#77838F"/>
<path fill-rule="evenodd" clip-rule="evenodd" d="M5.16658 7.16699C5.29918 7.16699 5.42636 7.21966 5.52013 7.31346L9.18676 10.9801C9.38203 11.1754 9.38203 11.4919 9.18676 11.6872L8.18683 12.6872C7.8535 13.0205 7.16883 13.3971 6.38731 13.5155C5.57958 13.6379 4.616 13.4902 3.81302 12.6872M3.81302 12.6872C3.01004 11.8843 2.86234 10.9207 2.98472 10.1129C3.10313 9.33139 3.47972 8.64679 3.81301 8.31346L4.81302 7.31346C4.90679 7.21966 5.03397 7.16699 5.16658 7.16699M5.16658 8.37413L4.52014 9.02053C4.52014 9.02053 4.52014 9.02053 4.52014 9.02053C4.35344 9.18726 4.06335 9.66926 3.97343 10.2627C3.88748 10.83 3.98978 11.4497 4.52013 11.9801C5.05048 12.5105 5.67024 12.6128 6.2375 12.5269C6.83098 12.4369 7.31296 12.1468 7.4797 11.9801L8.12616 11.3337L5.16658 8.37413Z" fill="#77838F"/>
<path fill-rule="evenodd" clip-rule="evenodd" d="M9.85335 8.97946C10.0486 9.17472 10.0486 9.49126 9.85335 9.68652L8.52002 11.0199C8.32475 11.2151 8.00822 11.2151 7.81295 11.0199C7.61769 10.8246 7.61769 10.5081 7.81295 10.3128L9.14629 8.97946C9.34155 8.78419 9.65809 8.78419 9.85335 8.97946Z" fill="#77838F"/>
<path fill-rule="evenodd" clip-rule="evenodd" d="M4.51997 11.9795C4.71523 12.1747 4.71548 12.4913 4.52022 12.6865L2.85355 14.3532C2.65829 14.5485 2.34171 14.5485 2.14645 14.3532C1.95118 14.1579 1.95118 13.8414 2.14645 13.6461L3.81311 11.9795C4.00837 11.7842 4.32471 11.7842 4.51997 11.9795Z" fill="#77838F"/>
<path fill-rule="evenodd" clip-rule="evenodd" d="M7.52036 6.64645C7.71563 6.84173 7.71563 7.15826 7.52036 7.35353L6.18705 8.68686C5.99179 8.88213 5.6752 8.88213 5.47994 8.68686C5.28468 8.4916 5.28468 8.17506 5.47994 7.9798L6.81327 6.64645C7.00853 6.45118 7.32509 6.45118 7.52036 6.64645Z" fill="#77838F"/>
</svg>
