<svg width="20" height="21" viewBox="0 0 20 21" fill="none" xmlns="http://www.w3.org/2000/svg">
<g clip-path="url(#clip0_151_16781)">
<path fill-rule="evenodd" clip-rule="evenodd" d="M17.5 5.78125V17.6562C17.5 18.3193 17.2366 18.9552 16.7678 19.424C16.2989 19.8929 15.663 20.1562 15 20.1562H13.75V18.9062H15C15.3315 18.9062 15.6495 18.7746 15.8839 18.5401C16.1183 18.3057 16.25 17.9878 16.25 17.6562V5.78125H13.75C13.2527 5.78125 12.7758 5.58371 12.4242 5.23208C12.0725 4.88044 11.875 4.40353 11.875 3.90625V1.40625H5C4.66848 1.40625 4.35054 1.53795 4.11612 1.77237C3.8817 2.00679 3.75 2.32473 3.75 2.65625V13.9062H2.5V2.65625C2.5 1.99321 2.76339 1.35732 3.23223 0.888483C3.70107 0.419642 4.33696 0.15625 5 0.15625L11.875 0.15625L17.5 5.78125ZM4.39625 18.7075C4.40341 18.9045 4.4517 19.0977 4.53803 19.2749C4.62435 19.4521 4.7468 19.6092 4.8975 19.7362C5.06 19.8713 5.25875 19.9762 5.495 20.0513C5.7325 20.1275 6.00875 20.165 6.32625 20.165C6.74875 20.165 7.10625 20.0987 7.4 19.9675C7.695 19.8363 7.92 19.6525 8.07375 19.4175C8.23 19.1812 8.3075 18.9075 8.3075 18.5975C8.3075 18.3175 8.25125 18.085 8.14 17.8975C8.02559 17.7102 7.86393 17.5563 7.67125 17.4513C7.44984 17.3289 7.21136 17.2404 6.96375 17.1888L6.1875 17.0088C6.00452 16.9751 5.83173 16.8999 5.6825 16.7887C5.62547 16.7448 5.5795 16.6881 5.54825 16.6232C5.517 16.5583 5.50133 16.487 5.5025 16.415C5.5025 16.22 5.58 16.06 5.73375 15.935C5.89 15.8088 6.10375 15.745 6.37375 15.745C6.5525 15.745 6.70625 15.7737 6.83625 15.83C6.95591 15.8788 7.06157 15.9565 7.14375 16.0563C7.22068 16.149 7.27235 16.2601 7.29375 16.3787H8.23125C8.21565 16.1242 8.12904 15.8791 7.98125 15.6712C7.82326 15.4469 7.60722 15.2697 7.35625 15.1587C7.0493 15.0241 6.7163 14.9592 6.38125 14.9688C6.015 14.9688 5.6925 15.0312 5.41125 15.1562C5.13 15.28 4.91125 15.4562 4.7525 15.6825C4.59375 15.91 4.515 16.1763 4.515 16.4813C4.515 16.7325 4.565 16.9513 4.6675 17.1362C4.77 17.3225 4.9175 17.4738 5.1075 17.595C5.2975 17.7138 5.5225 17.8037 5.78125 17.8612L6.55375 18.0413C6.8125 18.1025 7.005 18.1825 7.1325 18.2825C7.19479 18.33 7.24462 18.3919 7.27772 18.4628C7.31081 18.5338 7.32618 18.6118 7.3225 18.69C7.32492 18.8188 7.28784 18.9453 7.21625 19.0525C7.13576 19.1622 7.02498 19.2461 6.8975 19.2938C6.75875 19.3525 6.58625 19.3813 6.38125 19.3813C6.235 19.3813 6.1025 19.365 5.98125 19.3312C5.87074 19.3006 5.76602 19.2521 5.67125 19.1875C5.58803 19.1336 5.51679 19.0632 5.46195 18.9806C5.40712 18.8981 5.36986 18.8051 5.3525 18.7075H4.39625ZM1.0075 17.2725C1.0075 16.9625 1.05 16.6975 1.135 16.4813C1.20914 16.2815 1.34043 16.1081 1.5125 15.9825C1.68788 15.8652 1.89537 15.8054 2.10625 15.8113C2.29375 15.8112 2.46 15.8513 2.60375 15.9325C2.74462 16.0078 2.8622 16.1202 2.94375 16.2575C3.03087 16.4021 3.08229 16.5653 3.09375 16.7337H4.05V16.6437C4.04171 16.4135 3.98564 16.1875 3.88537 15.98C3.78509 15.7726 3.64279 15.5883 3.4675 15.4387C3.28792 15.2866 3.08026 15.1711 2.85625 15.0988C2.61233 15.0162 2.35626 14.9752 2.09875 14.9775C1.65375 14.9775 1.27375 15.07 0.96 15.2563C0.6475 15.4412 0.41 15.705 0.245 16.0462C0.0825 16.3888 0 16.7962 0 17.27V17.8925C0 18.3663 0.08 18.7725 0.24125 19.1125C0.405 19.4513 0.64375 19.7125 0.95625 19.895C1.26875 20.0763 1.64875 20.1662 2.09875 20.1662C2.465 20.1662 2.79125 20.0975 3.08 19.9613C3.3675 19.8237 3.5975 19.6362 3.7675 19.3938C3.93995 19.1455 4.03795 18.8532 4.05 18.5513V18.4563H3.095C3.08321 18.6172 3.0326 18.7729 2.9475 18.91C2.8642 19.0427 2.74677 19.1507 2.6075 19.2225C2.45141 19.298 2.2796 19.3353 2.10625 19.3312C1.89506 19.3372 1.68693 19.2798 1.50875 19.1663C1.33758 19.0444 1.20729 18.8736 1.135 18.6763C1.0436 18.4253 1.00035 18.1594 1.0075 17.8925V17.2738V17.2725ZM11.3062 20.07H10.115L8.4425 15.0712H9.58875L10.7088 18.9937H10.7562L11.8663 15.0712H12.965L11.3062 20.0713V20.07Z" fill="#0A5BE0"/>
</g>
<defs>
<clipPath id="clip0_151_16781">
<rect width="20" height="20" fill="white" transform="translate(0 0.15625)"/>
</clipPath>
</defs>
</svg>
