<svg width="28" height="29" viewBox="0 0 28 29" fill="none" xmlns="http://www.w3.org/2000/svg">
<path d="M7 7.5H9.33333V9.83333H7V7.5Z" fill="#001564"/>
<path d="M3.5 13.3333V4H12.8333V13.3333H3.5ZM5.83333 6.33333V11H10.5V6.33333H5.83333ZM15.1667 15.6667H18.6667V18H15.1667V15.6667Z" fill="#001564"/>
<path d="M18.666 18H20.9993V15.6667H24.4993V19.1667H20.9993V20.3333H22.166V21.5H24.4993V25H22.166V22.6667H19.8327V25H15.166V20.3333H17.4993V22.6667H18.666V18ZM20.9993 7.5H18.666V9.83333H20.9993V7.5Z" fill="#001564"/>
<path d="M15.1667 4V13.3333H24.5V4H15.1667ZM22.1667 6.33333V11H17.5V6.33333H22.1667ZM7 19.1667H9.33333V21.5H7V19.1667Z" fill="#001564"/>
<path d="M3.5 24.9993V15.666H12.8333V24.9993H3.5ZM5.83333 17.9993V22.666H10.5V17.9993H5.83333Z" fill="#001564"/>
</svg>
