<svg width="13" height="12" viewBox="0 0 13 12" fill="none" xmlns="http://www.w3.org/2000/svg">
<path d="M6.5 12C4.83333 12 3.41667 11.4167 2.25 10.25C1.08333 9.08333 0.5 7.66667 0.5 6C0.5 4.33333 1.08333 2.91667 2.25 1.75C3.41667 0.583333 4.83333 0 6.5 0C6.65556 0 6.80844 0.00555562 6.95867 0.0166667C7.10844 0.0277778 7.25556 0.0444444 7.4 0.0666666C6.94444 0.388889 6.58067 0.808222 6.30867 1.32467C6.03622 1.84156 5.9 2.4 5.9 3C5.9 4 6.25 4.85 6.95 5.55C7.65 6.25 8.5 6.6 9.5 6.6C10.1111 6.6 10.6722 6.46378 11.1833 6.19133C11.6944 5.91933 12.1111 5.55556 12.4333 5.1C12.4556 5.24444 12.4722 5.39156 12.4833 5.54133C12.4944 5.69156 12.5 5.84444 12.5 6C12.5 7.66667 11.9167 9.08333 10.75 10.25C9.58333 11.4167 8.16667 12 6.5 12Z" fill="#77838F"/>
</svg>
